<?xml version="1.0" encoding="UTF-8" standalone="no"?>
<svg
   xmlns:dc="http://purl.org/dc/elements/1.1/"
   xmlns:cc="http://creativecommons.org/ns#"
   xmlns:rdf="http://www.w3.org/1999/02/22-rdf-syntax-ns#"
   xmlns:svg="http://www.w3.org/2000/svg"
   xmlns="http://www.w3.org/2000/svg"
   xmlns:sodipodi="http://sodipodi.sourceforge.net/DTD/sodipodi-0.dtd"
   xmlns:inkscape="http://www.inkscape.org/namespaces/inkscape"
   inkscape:version="1.0 (4035a4f, 2020-05-01)"
   sodipodi:docname="code-svgrepo-com.svg"
   xml:space="preserve"
   style="enable-background:new 0 0 35.033 35.033;"
   viewBox="0 0 35.033 35.033"
   height="35.033px"
   width="35.033px"
   y="0px"
   x="0px"
   id="Capa_1"
   version="1.1"><metadata
   id="metadata872"><rdf:RDF><cc:Work
       rdf:about=""><dc:format>image/svg+xml</dc:format><dc:type
         rdf:resource="http://purl.org/dc/dcmitype/StillImage" /></cc:Work></rdf:RDF></metadata><defs
   id="defs870" /><sodipodi:namedview
   inkscape:current-layer="Capa_1"
   inkscape:window-maximized="0"
   inkscape:window-y="23"
   inkscape:window-x="0"
   inkscape:cy="17.5165"
   inkscape:cx="17.5165"
   inkscape:zoom="20.323694"
   showgrid="false"
   id="namedview868"
   inkscape:window-height="884"
   inkscape:window-width="1586"
   inkscape:pageshadow="2"
   inkscape:pageopacity="0"
   guidetolerance="10"
   gridtolerance="10"
   objecttolerance="10"
   borderopacity="1"
   bordercolor="#666666"
   pagecolor="#ffffff" />
<g
   style="fill:#ffffff;fill-opacity:0.66000003"
   id="g835">
	<path
   style="fill:#ffffff;fill-opacity:0.66000003"
   id="path833"
   d="M11.811,10.535l-6.983,6.984l6.983,6.981c0.78,0.781,0.78,2.048,0,2.828c-0.392,0.392-0.901,0.586-1.414,0.586   c-0.513,0-1.022-0.194-1.414-0.586l-8.397-8.396C0.211,18.558,0,18.049,0,17.519c0-0.529,0.211-1.039,0.586-1.414l8.397-8.398   c0.781-0.78,2.047-0.78,2.828,0C12.591,8.488,12.591,9.752,11.811,10.535z M34.447,16.104l-8.396-8.398   c-0.781-0.78-2.047-0.78-2.828,0c-0.781,0.781-0.781,2.047,0,2.828l6.982,6.984L23.223,24.5c-0.781,0.781-0.781,2.048,0,2.828   c0.392,0.392,0.902,0.586,1.414,0.586s1.023-0.194,1.414-0.586l8.396-8.396c0.375-0.375,0.586-0.884,0.586-1.414   C35.033,16.99,34.822,16.479,34.447,16.104z M21.012,3.831c-1.076-0.277-2.161,0.373-2.435,1.441l-6,23.498   c-0.272,1.07,0.373,2.16,1.442,2.434c0.167,0.043,0.334,0.063,0.497,0.063c0.894,0,1.706-0.603,1.937-1.505l6-23.498   C22.727,5.193,22.081,4.104,21.012,3.831z" />
</g>
<g
   id="g837">
</g>
<g
   id="g839">
</g>
<g
   id="g841">
</g>
<g
   id="g843">
</g>
<g
   id="g845">
</g>
<g
   id="g847">
</g>
<g
   id="g849">
</g>
<g
   id="g851">
</g>
<g
   id="g853">
</g>
<g
   id="g855">
</g>
<g
   id="g857">
</g>
<g
   id="g859">
</g>
<g
   id="g861">
</g>
<g
   id="g863">
</g>
<g
   id="g865">
</g>
</svg>
